<?xml version="1.0" encoding="UTF-8"?>
<svg id="Layer_2" data-name="Layer 2"
     xmlns="http://www.w3.org/2000/svg"
     viewBox="0 0 133.31 68.57"
     fill="none">

  <g id="Layer_1-2" data-name="Layer 1">
    <g id="_4srrJS.tif" data-name="4srrJS.tif">
      <path
        d="M21.61,0c.3.13.6.24.88.38.98.51,1.62,1.35,2.15,2.29.53.95,1.09,1.89,1.62,2.84.85,1.5,1.71,3,2.53,4.52.99,1.83,1.98,3.66,3.21,5.34.96,1.31,1.94,2.61,3.01,3.83,1.11,1.26,2.31,2.44,3.52,3.61,1.58,1.53,3.21,3.01,4.82,4.5,1.65,1.53,3.3,3.04,4.95,4.57,1.13,1.04,2.24,2.09,3.37,3.14,1.41,1.32,2.82,2.64,4.25,3.94,1.29,1.18,2.58,2.36,3.91,3.48,1.06.9,2.31,1.48,3.67,1.8,1.45.34,2.89.26,4.35.04.96-.15,1.9.02,2.77.47.62.32,1.18.73,1.65,1.24.51.55,1.16.78,1.89.79,2.31.02,4.63.02,6.94.03,2.01.01,4.02.03,6.02.05,1.31.01,2.63.04,3.94.05,2.13.01,4.26.02,6.39.02,1.54,0,3.07.01,4.61.02,1.59.01,3.18.03,4.77.05,1.47.02,2.94.03,4.41.04,1.5.01,3,.01,4.5.02,1.42,0,2.83.02,4.25.03,1.44.01,2.89.03,4.33.06.9.02,1.8.01,2.69.08,1.95.15,3.63.91,4.9,2.44.66.78,1.05,1.7,1.26,2.71.34,1.66-.02,3.21-.69,4.71-.66,1.48-1.51,2.84-2.62,4.03-.98,1.06-2.11,1.94-3.38,2.63-1.28.7-2.63,1.19-4.05,1.46-.97.18-1.96.25-2.94.37-1.07.13-2.15.24-3.22.39-1.08.15-2.16.33-3.23.5-.42.07-.83.18-1.25.22-.64.06-1.29.09-1.94.11-1.14.03-2.28.03-3.41.05-2.05.03-4.11.06-6.16.1-2.89.05-5.77.1-8.66.16-1.39.03-2.77.07-4.16.1-1.45.03-2.9.04-4.36.06-2.84.04-5.68.09-8.52.14-2.17.04-4.35.09-6.52.13-1.41.03-2.81.05-4.22.07-2.07.04-4.14.07-6.21.11-1.44.03-2.88.09-4.33.09-1.34,0-2.5-.46-3.31-1.59-.11-.15-.23-.21-.4-.16-.78.22-1.56.45-2.34.67-.8.23-1.6.45-2.4.66-.7.18-1.4.36-2.1.5-.78.15-1.56.3-2.35.39-1.15.13-2.3.26-3.45.3-1.03.04-2.07-.03-3.1-.08-.74-.04-1.48-.11-2.21-.21-.82-.11-1.65-.24-2.46-.41-.86-.18-1.72-.36-2.55-.62-.97-.3-1.93-.63-2.85-1.04-.92-.41-1.8-.9-2.66-1.41-1.11-.66-2.07-1.52-2.97-2.44-1.44-1.46-2.55-3.14-3.41-4.99-.62-1.34-1.13-2.73-1.43-4.18-.27-1.28-.54-2.57-.77-3.86-.27-1.5-.53-3-.76-4.51-.31-1.97-.59-3.95-.91-5.92-.26-1.64-.55-3.28-.85-4.92-.26-1.44-.55-2.87-.79-4.31-.11-.64-.56-.98-1.01-1.32-.56-.41-1.15-.79-1.47-1.44-.59-1.21-1.18-2.43-1.76-3.64-.48-1.02-.96-2.04-1.44-3.06-.38-.82-.75-1.64-1.14-2.46-.37-.8-.75-1.6-1.13-2.41-.46-1-.79-2.04-1.01-3.12C.02,10.9-.05,9.57.03,8.24c.1-1.66.62-3.17,1.9-4.33.83-.75,1.82-1.15,2.9-1.36.92-.18,1.85-.37,2.77-.55.95-.18,1.91-.34,2.86-.51.91-.16,1.82-.31,2.73-.47.92-.16,1.84-.31,2.76-.47.91-.15,1.82-.3,2.73-.46C18.8.08,18.9.03,19,0c.87,0,1.74,0,2.61,0ZM3.28,9.3s.02,0,.03,0c.01.24.03.48.03.72.04,1.25.29,2.46.81,3.6,1.03,2.26,2.09,4.51,3.14,6.76.65,1.39,1.3,2.77,1.96,4.16.15.3.31.62.54.85.41.4.89.75,1.34,1.11.8.64,1.15,1.5,1.31,2.49.13.84.32,1.67.48,2.5.13.7.27,1.4.39,2.1.14.76.26,1.51.39,2.27.13.76.26,1.51.38,2.27.13.8.23,1.61.36,2.41.18,1.13.36,2.26.54,3.4.17,1.07.31,2.14.5,3.2.27,1.48.56,2.96.85,4.44.31,1.61.82,3.16,1.53,4.64.79,1.64,1.83,3.08,3.15,4.32,1.98,1.86,4.37,2.98,6.97,3.66,1.02.27,2.05.49,3.09.66,1.07.17,2.14.32,3.22.35,1.42.04,2.85-.01,4.27-.08,1.73-.08,3.44-.38,5.11-.83,1.67-.45,3.33-.94,4.99-1.41.64-.18,1.28-.31,1.94-.21.89.14,1.64.49,1.99,1.41.1.25.29.4.58.4.28,0,.55,0,.83,0,2.02-.04,4.03-.08,6.05-.12,2.09-.04,4.18-.07,6.27-.11.71-.01,1.42-.03,2.14-.04,2.26-.03,4.51-.07,6.77-.1,1.14-.02,2.27-.04,3.41-.05.03,0,.06,0,.08,0,2.35-.05,4.7-.1,7.05-.15,1.36-.03,2.72-.04,4.08-.06,1.46-.03,2.92-.07,4.38-.09,1.41-.03,2.81-.04,4.22-.06,1.38-.03,2.75-.07,4.13-.09,2.16-.04,4.31-.07,6.47-.11.74-.01,1.49.01,2.22-.08,1.36-.17,2.7-.45,4.05-.63,1.49-.21,2.99-.39,4.49-.53,1.27-.12,2.5-.33,3.71-.77,1.37-.5,2.59-1.24,3.6-2.27,1.33-1.34,2.32-2.9,2.79-4.74.17-.68.15-1.38-.14-2.04-.52-1.17-1.51-1.69-2.69-1.88-.68-.11-1.38-.11-2.07-.12-1.37-.03-2.74-.03-4.11-.04-1.44-.01-2.89-.02-4.33-.03-1.47-.01-2.94-.03-4.41-.04-1.54-.02-3.07-.04-4.61-.05-1.49-.01-2.98-.01-4.47-.03-3.28-.02-6.57-.05-9.85-.07-1.71-.01-3.42-.03-5.13-.05-1.87-.01-3.74-.03-5.61-.04-2.75-.01-5.5,0-8.25-.04-1.64-.02-3.1-.51-4.26-1.75-.51-.54-1.09-.94-1.9-.78-1.07.21-2.14.24-3.23.18-1.34-.07-2.62-.36-3.85-.84-1.16-.44-2.24-1.06-3.19-1.86-1.35-1.15-2.67-2.34-3.98-3.54-1.29-1.17-2.54-2.37-3.82-3.55-1.35-1.25-2.71-2.49-4.05-3.75-.99-.92-1.96-1.85-2.95-2.77-.98-.91-1.96-1.8-2.94-2.7-.9-.83-1.79-1.66-2.68-2.5-1.04-.98-2.1-1.95-3.11-2.96-1.38-1.38-2.64-2.87-3.82-4.42-1.35-1.78-2.57-3.64-3.65-5.59-.49-.88-.93-1.78-1.43-2.66-.77-1.37-1.56-2.72-2.34-4.08-.5-.86-.98-1.74-1.48-2.6-.31-.53-.74-.84-1.39-.73-.68.11-1.37.22-2.05.34-1.07.18-2.13.37-3.2.55-1,.17-2.01.32-3.01.51-1.25.22-2.49.46-3.73.7-1.03.2-2.06.38-3.07.62-.9.2-1.45.81-1.62,1.7-.11.56-.13,1.14-.19,1.7Z"
        fill="none"
        stroke="currentColor"
        stroke-width="2.5"
        stroke-linecap="round"
        stroke-linejoin="round"
      />
    </g>
  </g>
</svg>