<?xml version="1.0" encoding="UTF-8"?>
<svg id="Capa_1" data-name="Capa 1" xmlns="http://www.w3.org/2000/svg" viewBox="0 0 587.48 204.89">
  <defs>
    <style>
      .cls-1 {
        fill: #0cae8d;
      }
    </style>
  </defs>
  <g>
    <g>
      <polygon class="cls-1" points="0 204.88 81.71 204.88 81.71 196.38 8.62 196.38 8.62 85.71 81.71 85.71 81.71 77.22 0 77.22 0 204.88"/>
      <path class="cls-1" d="M17.2,187.85h64.51v-8.5H25.82v-29.81h55.89v-8.49c-9.56,0-64.51,0-64.51,0v46.81Z"/>
      <polygon class="cls-1" points="17.2 132.55 81.71 132.55 81.71 124.02 25.82 124.02 25.82 102.74 81.71 102.74 81.71 94.24 17.2 94.24 17.2 132.55"/>
    </g>
    <g>
      <path class="cls-1" d="M213.75,95.92c-11.65-11.56-27.76-18.71-45.58-18.71-35.62,0-64.51,28.58-64.51,63.83s28.89,63.83,64.51,63.83c17.81,0,33.92-7.15,45.58-18.7l-6.07-6.03c-10.13,10-24.12,16.21-39.51,16.21-30.83,0-55.92-24.8-55.92-55.3s25.09-55.3,55.92-55.3c15.38,0,29.37,6.22,39.51,16.21l6.07-6.03Z"/>
      <path class="cls-1" d="M168.17,102.77c10.65,0,20.33,4.29,27.34,11.23l6.07-6.03c-8.56-8.47-20.39-13.72-33.41-13.72-26.1,0-47.3,21.02-47.3,46.81s21.21,46.81,47.3,46.81c13.02,0,24.85-5.25,33.41-13.72l-6.07-6.03c-7.01,6.94-16.69,11.23-27.34,11.23-21.36,0-38.72-17.17-38.72-38.28s17.36-38.28,38.72-38.28Z"/>
    </g>
    <g>
      <polygon class="cls-1" points="466.59 196.38 460.4 196.38 393.43 103.67 393.43 204.88 402.05 204.88 402.05 130.27 455.94 204.88 475.18 204.88 475.18 77.22 466.59 77.22 466.59 196.38"/>
      <polygon class="cls-1" points="457.97 77.22 449.38 77.22 449.38 151.89 395.43 77.22 376.26 77.22 376.26 204.88 384.84 204.88 384.84 85.74 391.03 85.74 457.97 178.4 457.97 77.22"/>
    </g>
    <g>
      <path class="cls-1" d="M289.76,77.23c-35.62,0-64.5,28.57-64.5,63.82s28.88,63.82,64.5,63.82,64.5-28.57,64.5-63.82-28.88-63.82-64.5-63.82ZM289.76,196.36c-30.82,0-55.9-24.81-55.9-55.31s25.08-55.31,55.9-55.31,55.9,24.81,55.9,55.31-25.08,55.31-55.9,55.31Z"/>
      <path class="cls-1" d="M289.76,94.25c-26.08,0-47.3,20.99-47.3,46.8s21.22,46.8,47.3,46.8,47.3-20.99,47.3-46.8-21.22-46.8-47.3-46.8ZM289.76,179.33c-21.34,0-38.7-17.18-38.7-38.29s17.36-38.29,38.7-38.29,38.7,17.18,38.7,38.29-17.36,38.29-38.7,38.29Z"/>
    </g>
    <g>
      <path class="cls-1" d="M533.7,149.56h12.93c8.31,0,15.05,6.7,15.05,14.89s-6.74,14.89-15.05,14.89h-8.63c-8.31,0-15.05-6.67-15.05-14.89h-8.62c0,12.91,10.62,23.39,23.67,23.42,0,0,8.63,0,8.63-.03,13.05,0,23.67-10.48,23.67-23.39s-10.62-23.39-23.67-23.42h-12.93c-15.41,0-27.95-12.4-27.95-27.65s12.53-27.65,27.95-27.65h8.63c15.41,0,27.95,12.4,27.95,27.65h8.59c0-19.97-16.36-36.18-36.53-36.18h-8.63c-20.18,0-36.53,16.21-36.53,36.18s16.35,36.18,36.53,36.18Z"/>
      <path class="cls-1" d="M546.63,124.01h-12.93c-5.92,0-10.74-4.77-10.74-10.63s4.82-10.63,10.74-10.63h8.63c5.92,0,10.74,4.77,10.74,10.63h8.62c0-10.57-8.71-19.16-19.36-19.16h-8.63c-10.65,0-19.36,8.59-19.36,19.16s8.71,19.13,19.36,19.16h12.93c17.78,0,32.26,14.32,32.26,31.92s-14.47,31.92-32.26,31.92h-8.63c-17.78,0-32.26-14.32-32.26-31.92h-8.59c0,22.34,18.27,40.41,40.84,40.44,0,0,8.63,0,8.63-.03,22.58,0,40.84-18.07,40.84-40.41s-18.27-40.41-40.84-40.44Z"/>
    </g>
  </g>
  <g>
    <path class="cls-1" d="M122.27,0c6.02,0,12.28,1.28,12.28,8.72,0,2.24-1.14,3.83-2.42,5.43,1.69,1.69,2.97,3.56,2.97,6.02,0,8.76-7.53,10.31-13.1,10.31l-16.43-.05V.09l16.7-.09ZM123.64,11.91c2.24,0,3.42-1.42,3.42-2.83,0-1.32-1.05-2.6-3.33-2.6l-11.59.18v5.25h11.5ZM112.14,24.19s9.04.14,10.22.14c2.56,0,5.43-.59,5.43-3.56,0-2.42-3.01-2.65-5.48-2.65h-10.18v6.07Z"/>
    <path class="cls-1" d="M179.68,23.14h-15.88c-1.05,2.28-2.19,4.75-3.42,7.3h-7.48L167.68.09h8.17l14.79,30.35h-7.48l-3.47-7.3ZM166.86,16.75h9.81l-4.34-9.17h-1.14c-.27.5-1.87,3.92-4.34,9.17Z"/>
    <path class="cls-1" d="M234.41.09h7.39l-15.11,30.35h-7.26L204.33.09h7.39c5.8,12.14,9.95,20.67,11,22.87h.68c1.05-2.19,5.2-10.73,11-22.87Z"/>
    <path class="cls-1" d="M282.28,23.14h-15.88c-1.05,2.28-2.19,4.75-3.42,7.3h-7.48L270.28.09h8.17l14.79,30.35h-7.48l-3.47-7.3ZM269.46,16.75h9.81l-4.34-9.17h-1.14c-.27.5-1.87,3.92-4.34,9.17Z"/>
    <path class="cls-1" d="M319.75,18.26v12.19h-6.57V.09c19.08,0,19.44-.05,19.81-.05,6.89,0,11.27,3.79,11.27,9.04,0,4.29-2.46,7.44-6.48,8.21l1.64,5.34c.41,1.46,1.51,1.96,2.56,1.96.82,0,1.6-.27,2.1-.59v6.44c-1.83.59-3.42.91-4.79.91-3.65,0-5.71-2.01-6.62-5.34l-2.1-7.76h-10.82ZM331.94,12.5c2.74,0,4.11-1.32,4.11-3.1s-1.32-2.83-3.93-2.83l-12.37.09v5.84h12.19Z"/>
    <path class="cls-1" d="M366.9,30.44V.09h6.57v30.35h-6.57Z"/>
    <path class="cls-1" d="M420.71,23.14h-15.88c-1.05,2.28-2.19,4.75-3.42,7.3h-7.48L408.71.09h8.17l14.79,30.35h-7.48l-3.47-7.3ZM407.88,16.75h9.81l-4.34-9.17h-1.14c-.27.5-1.87,3.92-4.34,9.17Z"/>
    <path class="cls-1" d="M481.91,30.44h-6.57l-17.11-20.17v20.17h-6.57V.09h6.62l17.07,20.31V.09h6.57v30.35Z"/>
  </g>
</svg>